<svg width="318" height="113" viewBox="0 0 318 113" fill="none" xmlns="http://www.w3.org/2000/svg">
<path d="M61.5 9H1.5V104H61.5" stroke="white" stroke-width="2"/>
<path d="M62.476 75.5H35.66V32.364H62.22V40.236H45.58V50.028H60.428V57.836H45.58V67.628H62.476V75.5ZM97.4805 62.956C97.4805 66.8387 96.0512 69.996 93.1925 72.428C90.3338 74.8173 86.5365 76.012 81.8005 76.012C76.7232 76.012 72.5845 75.116 69.3845 73.324V63.404C73.2672 66.22 77.4058 67.628 81.8005 67.628C83.2938 67.628 84.5312 67.244 85.5125 66.476C86.4938 65.6653 86.9845 64.62 86.9845 63.34C86.9845 62.9133 86.9205 62.508 86.7925 62.124C86.6645 61.74 86.4298 61.3773 86.0885 61.036C85.7472 60.6947 85.4058 60.4173 85.0645 60.204C84.7658 59.948 84.2965 59.6707 83.6565 59.372C83.0592 59.0307 82.5472 58.7533 82.1205 58.54C81.6938 58.3267 81.0538 58.028 80.2005 57.644C79.3898 57.26 78.7285 56.9613 78.2165 56.748C75.4432 55.468 73.2032 53.8893 71.4965 52.012C69.8325 50.1347 69.0005 47.6387 69.0005 44.524C69.0005 40.812 70.3658 37.8253 73.0965 35.564C75.8272 33.26 79.6032 32.108 84.4245 32.108C88.7338 32.108 92.4458 32.8333 95.5605 34.284V43.5C92.1045 41.4947 88.5205 40.492 84.8085 40.492C83.1445 40.492 81.8645 40.8333 80.9685 41.516C80.1152 42.1987 79.6885 43.0733 79.6885 44.14C79.6885 45.2067 80.2218 46.1667 81.2885 47.02C82.3552 47.8307 83.9552 48.7053 86.0885 49.644C87.4112 50.2413 88.4992 50.7747 89.3525 51.244C90.2485 51.6707 91.2512 52.2893 92.3605 53.1C93.5125 53.868 94.4085 54.7 95.0485 55.596C95.7312 56.4493 96.3072 57.516 96.7765 58.796C97.2458 60.076 97.4805 61.4627 97.4805 62.956ZM118.58 61.548H113.588V75.5H103.732V32.364H118.58C123.358 32.364 127.22 33.708 130.164 36.396C133.15 39.084 134.644 42.4973 134.644 46.636C134.644 51.372 133.086 55.0413 129.972 57.644C126.9 60.2467 123.102 61.548 118.58 61.548ZM117.428 40.236H113.588V53.74H116.852C122.057 53.74 124.66 51.372 124.66 46.636C124.66 42.3693 122.249 40.236 117.428 40.236ZM153.042 57.196L152.594 58.732H162.962L162.514 57.196C161.277 53.0147 160.253 49.452 159.442 46.508C158.674 43.564 158.205 41.6653 158.034 40.812L157.778 39.532C157.437 41.8787 155.858 47.7667 153.042 57.196ZM147.602 75.5H137.298L151.698 32.364H164.114L178.514 75.5H167.954L165.33 66.668H150.226L147.602 75.5ZM216.238 73.58C213.635 75.2013 209.88 76.012 204.974 76.012C198.659 76.012 193.368 73.9853 189.102 69.932C184.878 65.836 182.766 60.5453 182.766 54.06C182.766 47.4893 184.814 42.1347 188.91 37.996C193.048 33.8573 198.424 31.788 205.038 31.788C209.902 31.788 213.635 32.5987 216.238 34.22V43.692C213.038 41.7293 209.475 40.748 205.55 40.748C202.094 40.748 199.192 41.964 196.846 44.396C194.499 46.7853 193.326 50.0067 193.326 54.06C193.326 58.028 194.499 61.1853 196.846 63.532C199.192 65.836 202.222 66.988 205.934 66.988C209.944 66.988 213.379 65.964 216.238 63.916V73.58ZM234.304 75.5H224.448V32.364H234.304V75.5ZM283.821 53.804C283.821 60.4173 281.901 65.772 278.061 69.868C274.264 73.9213 269.186 75.948 262.829 75.948C256.429 75.948 251.33 73.9213 247.533 69.868C243.736 65.8147 241.837 60.46 241.837 53.804C241.837 47.1907 243.736 41.8573 247.533 37.804C251.373 33.708 256.472 31.66 262.829 31.66C269.229 31.66 274.328 33.6867 278.125 37.74C281.922 41.7933 283.821 47.148 283.821 53.804ZM255.213 44.204C253.336 46.5507 252.397 49.7507 252.397 53.804C252.397 57.8573 253.336 61.0787 255.213 63.468C257.09 65.8147 259.629 66.988 262.829 66.988C266.029 66.988 268.568 65.8147 270.445 63.468C272.322 61.0787 273.261 57.8573 273.261 53.804C273.261 49.7507 272.322 46.5507 270.445 44.204C268.568 41.8147 266.029 40.62 262.829 40.62C259.629 40.62 257.09 41.8147 255.213 44.204Z" fill="white"/>
<path d="M256.5 9H316.5V104H256.5" stroke="white" stroke-width="2"/>
</svg>
